<svg xmlns="http://www.w3.org/2000/svg" width="128" height="30" viewBox="0 0 128 30">
    <path fill="#43C9C6" fill-rule="nonzero" d="M.38 29.812l4.442-1.313v.996l-.293.317H.38zm10.262-2.443l5.312-1.175 1.684 3.347-.259.284h-5.398l-.26-.142-1.08-2.314zM10.734.124h4.925l.197.368-6.107 11.532 1.3 3.23-3.428 4.418-1.103-3.027-1.891 3.967v2.986L.214 29.323V.41L.489.124h3.822l.276.286v10.837l.552.123L10.497.287l.237-.163zM4.772 24.109v4.097L.6 29.323l4.17-5.214zm5.732 2.858l-.661-1.728L7.9 20.141l3.596-4.593 1.942 4.761 2.15 5.268-5.084 1.39zm13.374-25.53l.185.145v4.73l-.324.339h-3.847l3.986-5.214zm-4.67 4.944l-.224-.237V1.45l.27-.284h3.902L19.209 6.38zm4.711 1.815l.28.288v14.663l-5.215 1.232V8.484l.326-.288h4.61zm-4.935 17.041l5.215-1.128v5.453l-.323.263h-4.569l-.323-.263v-4.325zm15.523-13.642c-.37 0-.697.081-1.108.284-.082.04-.205.081-.287.122l-.944-1.95.247-.203c.287-.285.574-.528.82-.69.41-.326.985-.61 1.723-.895.739-.284 1.519-.406 2.34-.406.943 0 1.722.366 2.338 1.056.615.691.902 1.544.902 2.52v6.947l-3.774 1.016-.82-1.666v-4.144c0-.732-.083-1.22-.288-1.544-.164-.285-.574-.447-1.149-.447zm-2.544-3.21v1.056l-.656-1.34h.37l.286.284zm-4.595 14.14l4.636-1.22v8.126l-.287.285h-4.062l-.287-.285v-6.907zm.287-14.384h2.995l2.01 4.104c-.122.122-.327.244-.574.447l-.123.081v7.923l-4.595 1.219V8.425l.287-.284zm9.355 11.783l3.528-.935v8.248l-3.528-7.313zm-1.067-.853l.205.487-.205.04v-.527zm.492 1.015l4.144 8.492v.813l-.287.284H36.23l-.287-.284v-9.183l.492-.122zM52.806 9.523l.492.447V8.304l4.596 1.381v4.063l-4.596 1.22v-2.601l-.164-.081a6.283 6.283 0 0 0-2.913-.691c-.41 0-.697.081-.984.284-.288.163-.493.447-.616.813-.164.365-.246.772-.328 1.178a7.5 7.5 0 0 0-.123 1.463V16.348l-4.554 1.22v-.366-.122c0-.732.04-1.382.082-1.991.082-.61.123-1.219.246-1.869.123-.61.246-1.219.41-1.706.164-.488.37-1.016.657-1.463.287-.488.615-.853.984-1.178.37-.285.82-.57 1.354-.732.534-.203 1.108-.284 1.723-.284.493 0 .944.081 1.395.203.41.122.821.325 1.231.61.41.284.698.528.944.73.041.041.123.082.164.123zm5.088-.582l-4.596-1.264V.323l.288-.268h4.02l.288.268v8.618zm-4.596 6.636l4.637-1.22v15.034l-.287.284h-4.062l-.288-.284v-1.422l-.492.406c-.41.365-.861.69-1.272.934-.697.447-1.477.65-2.38.65-.984 0-1.846-.284-2.584-.812-.739-.569-1.272-1.3-1.683-2.235a16.33 16.33 0 0 1-.861-2.844 18.675 18.675 0 0 1-.37-3.169v-.244-.244-.121-.041-.163-.202-1.667L48.212 17V21.224c0 .69.04 1.34.123 1.869.082.528.164 1.097.328 1.585.123.487.328.893.616 1.137.246.244.574.366.943.366.903 0 1.888-.163 2.872-.528l.205-.082v-9.994zm20.843-1.057l4.513 1.382v13.53l-.287.284h-2.995l-.246-.204-.903-2.681-.328.61C72.992 29.146 71.68 30 69.915 30c-1.354 0-2.585-.203-3.61-.61-1.026-.406-1.888-.934-2.544-1.625-.657-.69-1.19-1.544-1.56-2.6a17.502 17.502 0 0 1-.779-3.29 37.02 37.02 0 0 1-.205-3.942v-4.47l4.595-1.218v6.663c0 .69.041 1.34.082 1.91.041.569.082 1.178.206 1.747.082.569.246 1.097.45 1.503.206.406.452.813.74 1.138.287.325.656.61 1.107.772.452.162.985.243 1.56.243.697 0 1.312-.121 1.805-.406.492-.244.902-.61 1.19-1.016.287-.406.533-.975.697-1.625.205-.65.328-1.34.37-1.99.04-.691.081-1.423.081-2.276v-.894h-4.02l-.288-.284v-2.925l.287-.285h4.062zm2.093-5.038l2.256-.61v.326l-.287.284h-1.97zm-11.16 2.357l-3.857 1.015v-2.153l3.857 1.138zm13.17-5.202c.082.575.164 1.15.246 1.803v.038l-4.349 1.074-.246-.23v-.729a67.956 67.956 0 0 0-.123-1.688 5.63 5.63 0 0 0-.328-1.38 2.555 2.555 0 0 0-.616-1.075 2.863 2.863 0 0 0-1.066-.652c-.452-.153-.985-.23-1.6-.23-.862 0-1.56.153-2.134.422a2.818 2.818 0 0 0-1.313 1.227 6.626 6.626 0 0 0-.656 1.842c-.124.69-.206 1.496-.206 2.378v1.995l-4.595-1.266C61.34 3.414 64.335 0 70.161 0c1.395 0 2.667.23 3.693.614 1.026.422 1.887.997 2.544 1.765a7.584 7.584 0 0 1 1.477 2.685c.082.23.123.499.205.767.082.23.123.499.164.768v.038zm.205 7.883l.247.244v.487l-2.503-.73h2.256zm15.756 7.435l.246.244-8.042 7.638c-.451-.08-.862-.243-1.272-.406-.78-.365-1.436-.853-1.887-1.422-.452-.569-.82-1.34-1.108-2.234-.287-.894-.451-1.788-.574-2.682-.124-.894-.165-1.95-.206-3.128-.04-.447-.04-.935-.04-1.382 0-.447.04-.934.04-1.381v-.447l7.919 2.356h-3.364V21.956c0 .446 0 .893.04 1.3 0 .406.083.812.165 1.178.123.365.246.69.37.975.163.244.327.447.573.61.247.162.534.243.862.243.41 0 .78-.081 1.026-.244a1.39 1.39 0 0 0 .574-.69c.123-.366.246-.691.287-1.016.041-.366.082-.772.082-1.3v-.772l.288-.285h4.02zm.246-6.338c.04.813.082 1.747.123 2.844v.366l-.287.284h-2.913l-9.93-2.966c.042-.284.042-.568.083-.853v-.203c0-.122.04-.244.04-.325 0-.163.042-.284.042-.447v-.081a13.29 13.29 0 0 1 .615-2.52c.287-.812.656-1.503 1.149-2.03a5.356 5.356 0 0 1 1.887-1.3c.78-.326 1.682-.488 2.708-.488.903 0 1.764.121 2.462.365.738.244 1.313.61 1.805 1.097a6.654 6.654 0 0 1 1.19 1.625c.287.57.533 1.3.697 2.154.165.853.288 1.666.329 2.478zm-4.555-.122c0-.569-.04-1.056-.082-1.503-.04-.406-.164-.813-.287-1.219-.164-.406-.328-.69-.615-.894-.287-.203-.575-.284-.985-.284-.41 0-.738.122-1.026.325-.287.203-.492.528-.615.934-.123.407-.246.854-.287 1.26-.041.406-.082.934-.082 1.503v1.016h3.98v-1.138zM87.148 29.92l7.344-6.907c-.041.284-.041.528-.082.812-.041.285-.082.528-.123.772-.041.04-.041.082-.041.122l-.124.61a.309.309 0 0 0-.082.203c-.04.162-.082.284-.123.447-.04.162-.123.284-.164.447 0 .04 0 .121-.04.162-.288.61-.575 1.138-.986 1.585-1.025 1.178-2.666 1.787-4.84 1.787-.247 0-.493 0-.74-.04zm18.38-6.013c0-.041 0-.041 0 0l4.268 1.137c-.041.122-.041.203-.082.325-.041.081-.041.203-.082.285-.042.122-.042.203-.083.284a2.275 2.275 0 0 1-.164.488c-.04.04-.04.121-.082.162-.082.163-.123.325-.205.447 0 .04-.04.04-.04.081a3.024 3.024 0 0 1-.288.488c0 .04-.041.04-.041.081a1.805 1.805 0 0 1-.328.447c-1.026 1.178-2.667 1.788-4.842 1.788-1.026 0-1.97-.163-2.749-.528-.78-.366-1.436-.854-1.887-1.422-.451-.57-.82-1.341-1.108-2.235-.287-.894-.451-1.788-.574-2.682a3.523 3.523 0 0 1-.082-.65c-.041-.081-.041-.162-.041-.243-.041-.122-.041-.244-.041-.366-.041-.122-.041-.285-.041-.406v-.041l4.554 1.34c.04.163.04.326.04.488 0 .407.083.813.165 1.178.123.366.246.691.37.976.163.243.327.447.574.609.246.163.533.244.861.244.41 0 .78-.081 1.026-.244a1.39 1.39 0 0 0 .574-.69c.123-.366.247-.691.288-1.016.04-.041.04-.122.04-.204v-.121zm2.34-14.586c0 .04.04.08.122.08l-3.036 2.886c-.123-.163-.246-.285-.37-.407-.286-.203-.573-.284-.984-.284-.41 0-.738.122-1.026.325-.287.203-.492.528-.615.934-.123.407-.246.854-.287 1.26-.041.366-.082.812-.082 1.34l-4.595 4.389a29.225 29.225 0 0 1 0-2.682 28.88 28.88 0 0 1 .246-2.966c.123-.853.328-1.706.615-2.519.287-.813.657-1.503 1.149-2.031a5.356 5.356 0 0 1 1.887-1.3c.78-.326 1.682-.488 2.708-.488.903 0 1.764.122 2.462.366.738.243 1.313.609 1.805 1.097zm2.01 12.635l.246.285V23.134c0 .203 0 .447-.041.65-.041.04-.041.122-.041.162-.041.244-.041.447-.082.65l-4.39-1.3v-.04-1.016l.287-.285h4.02zm.205-6.338c.04.813.082 1.747.123 2.804v.365l-.287.285h-8.33V22.118l-4.553-1.34v-.123l4.554-4.307v.366h3.939v-1.137c0-.57-.041-1.057-.082-1.463a12.306 12.306 0 0 0-.288-1.178l3.16-3.007.369.488.04.04c.124.163.247.366.33.528.286.57.532 1.3.697 2.154.164.853.246 1.666.328 2.478zm2.872 10.442l4.636 1.381v1.95l-.287.285h-4.062l-.287-.284v-3.332zM117.55.687l-4.595 4V.277l.246-.262h4.062l.287.262v.411zm1.929 18.871l-1.97 2.56v4.754l-4.595-1.382V5.5l4.595-4.347v14.505l5.047-7.395.246-.122h4.062l.205.366-4.677 7.232 4.718 13.61-.205.285-4.719-1.422-2.707-8.654zm3.118 9.914l-.205-.569 2.625.772h-2.174l-.246-.203z"/>
</svg>
